<?xml version="1.0" encoding="utf-8"?>
<!-- Generator: Adobe Illustrator 21.1.0, SVG Export Plug-In . SVG Version: 6.00 Build 0)  -->
<svg version="1.1" id="Layer_1" xmlns="http://www.w3.org/2000/svg" xmlns:xlink="http://www.w3.org/1999/xlink" x="0px" y="0px"
	 viewBox="0 0 524.1 455.3" style="enable-background:new 0 0 524.1 455.3;" xml:space="preserve">
<style type="text/css">
	.st0{fill:#FFFFFF;}
</style>
<g id="_x34_6Y4rX_1_">
	<g>
		<path class="st0" d="M7.3,128.2c18-15.6,36.1-31,54.1-46.7c19.1-16.6,38.7-32.6,60.5-45.7c11.4-6.8,23.4-11.8,36.6-14.1
			c21.1-3.6,36.4,4.7,48.2,21.9c11.4,16.6,16.5,35.5,20.6,54.7c7.2,33.9,11.2,68.3,15.1,102.7c2.5,21.9,6.2,43.6,17,63.2
			c4.8,8.7,10.7,16.5,19,22.2c10.5,7.1,21.2,7.3,30.8-0.9c6.5-5.6,12.4-12.2,17.2-19.3c14.8-22.4,27.4-46.1,35.3-71.9
			c4.4-14.2,5.8-28.8,2.7-43.4c-3.3-16-12.6-24.7-28.9-26.6c-9-1.1-18.3-0.8-27.4-1c-1.8-0.1-3.6,0-6.4,0c2-5.3,3.6-10.3,5.8-15.1
			c21.2-46.2,56-78.5,103.7-95.4c26.1-9.2,53.3-8.3,79,3.3c19.3,8.7,27.3,25.4,28.8,45.7c1.1,15.2-1.6,30-6.2,44.3
			c-27.5,84.5-67.5,162.5-122.3,232.6c-24,30.7-51.1,58.5-83.1,81.1c-16.8,11.9-34.4,22.2-54.8,26.7c-29.6,6.6-49.7-1.2-67-26.1
			c-14.3-20.5-22.6-43.7-29.2-67.5c-9.1-33.2-16.9-66.8-26.3-99.9c-7.5-26.7-16.3-53.1-25-79.5c-2.3-6.9-6-13.4-9.9-19.5
			c-5.2-8.1-13.1-11.9-22.8-9.8c-10.1,2.1-20,5.1-30,7.2c-16.9,3.6-24.1-0.2-31.7-15.6c-1.1-2.2-2.3-4.4-3.5-6.6
			C7.3,128.8,7.3,128.5,7.3,128.2z"/>
	</g>
</g>
</svg>
